<svg width="282" height="320" viewBox="0 0 282 320" fill="none" xmlns="http://www.w3.org/2000/svg">
<path d="M233 277V277C233 273.134 236.134 270 240 270H253.5C264.546 270 273.5 278.954 273.5 290V290M273.5 290V309.5C273.5 313.366 270.366 316.5 266.5 316.5H253C241.954 316.5 233 307.546 233 296.5V290H273.5Z" stroke="#333333" stroke-width="6"/>
<path d="M220 270V319M220 259V265" stroke="#333333" stroke-width="6"/>
<path d="M206.5 255V319" stroke="#333333" stroke-width="6"/>
<path d="M151 290.5H194.5V278.5C194.5 274.634 191.366 271.5 187.5 271.5H158C154.134 271.5 151 274.634 151 278.5V309.5C151 313.366 154.134 316.5 158 316.5H193" stroke="#333333" stroke-width="6"/>
<path d="M130.5 255.5V309C130.5 312.866 133.634 316 137.5 316H139M122 265.5H141.5" stroke="#333333" stroke-width="6"/>
<path d="M76 286.5C76 277.111 83.6112 269.5 93 269.5H112C114.209 269.5 116 271.291 116 273.5V298.5C116 307.889 108.389 315.5 99 315.5H80C77.7909 315.5 76 313.709 76 311.5V286.5Z" stroke="#333333" stroke-width="6"/>
<path d="M60 255V283.5M60 318.5V283.5M19 255V283.5M19 318.5V283.5M19 283.5H60" stroke="#333333" stroke-width="6"/>
<path d="M280.103 218.732H140.619V194.918V28.2165V1H171.237V14.6082H151.959V28.2165H196.186C213.196 29.3505 239.052 43.4124 247.217 81.5155C255.382 119.619 262.337 172.993 263.093 194.918H280.103V218.732Z" fill="#009FE3"/>
<path d="M140.619 194.918V218.732H280.103V194.918H263.093M140.619 194.918V28.2165M140.619 194.918H263.093M140.619 28.2165V1H171.237V14.6082H151.959V28.2165M140.619 28.2165H151.959M263.093 194.918C262.337 172.993 255.382 119.619 247.217 81.5155C239.052 43.4124 213.196 29.3505 196.186 28.2165H151.959" stroke="#009FE3"/>
<path d="M3.26839 218.732H142.753L140.485 194.918V28.2165L142.753 1H112.134V14.6082H131.413V28.2165H87.1859C70.1756 29.3505 44.3199 43.4124 36.155 81.5155C27.99 119.619 21.0347 172.993 20.2787 194.918H3.26839V218.732Z" fill="#2DAAE1"/>
<path d="M140.485 194.918L142.753 218.732H3.26839V194.918H20.2787M140.485 194.918V28.2165M140.485 194.918H20.2787M140.485 28.2165L142.753 1H112.134V14.6082H131.413V28.2165M140.485 28.2165H131.413M20.2787 194.918C21.0347 172.993 27.99 119.619 36.155 81.5155C44.3199 43.4124 70.1756 29.3505 87.1859 28.2165H131.413" stroke="#2DAAE1"/>
<rect width="140.619" height="27.2165" transform="matrix(-1 0 0 1 281.237 193.784)" fill="#078ED0"/>
<rect width="140.619" height="27.2165" transform="matrix(-1 0 0 1 140.619 193.784)" fill="#009FE3"/>
<path d="M140.618 1V27.5H128.144V23.1134V14.6082H108.866V1H140.618Z" fill="#009FE3" stroke="#009FE3"/>
<path d="M141.5 1V27.5H153.093V23.1134V14.6082H172.371V1H141.5Z" fill="#078ED0" stroke="#078ED0"/>
<path d="M201.856 46.3613H167.181V95.1848H117.48V46.3613H81.6494V182.444H117.48V131.543H167.181V181.405H201.856V46.3613Z" fill="white" stroke="white"/>
</svg>
