<svg width="328" height="98" viewBox="0 0 328 98" fill="none" xmlns="http://www.w3.org/2000/svg">
<path d="M123.5 97H62V86.5V13V1H75.5V7H67V13H86.5C94 13.5 105.4 19.7 109 36.5C112.6 53.3 115.667 76.8333 116 86.5H123.5V97Z" fill="#009FE3"/>
<path d="M62 86.5V97H123.5V86.5H116M62 86.5V13M62 86.5H116M62 13V1H75.5V7H67V13M62 13H67M116 86.5C115.667 76.8333 112.6 53.3 109 36.5C105.4 19.7 94 13.5 86.5 13H67" stroke="#009FE3"/>
<path d="M1 97H62.5L61.5 86.5V13L62.5 1H49V7H57.5V13H38C30.5 13.5 19.1 19.7 15.5 36.5C11.9 53.3 8.83333 76.8333 8.5 86.5H1V97Z" fill="#2DAAE1"/>
<path d="M61.5 86.5L62.5 97H1V86.5H8.5M61.5 86.5V13M61.5 86.5H8.5M61.5 13L62.5 1H49V7H57.5V13M61.5 13H57.5M8.5 86.5C8.83333 76.8333 11.9 53.3 15.5 36.5C19.1 19.7 30.5 13.5 38 13H57.5" stroke="#2DAAE1"/>
<rect width="62" height="12" transform="matrix(-1 0 0 1 124 86)" fill="#078ED0"/>
<rect width="62" height="12" transform="matrix(-1 0 0 1 62 86)" fill="#009FE3"/>
<path d="M62 1V12H56.5V10.75V7H48V1H62Z" fill="#009FE3" stroke="#009FE3"/>
<path d="M62.5 1V12H67.5V10.75V7H76V1H62.5Z" fill="#078ED0" stroke="#078ED0"/>
<path d="M89 21H73.7115V42.5267H51.7981V21H36V81H51.7981V58.5573H73.7115V80.542H89V21Z" fill="white" stroke="white"/>
<path d="M284 39V39C284 35.134 287.134 32 291 32H304.5C315.546 32 324.5 40.9543 324.5 52V52M324.5 52V71.5C324.5 75.366 321.366 78.5 317.5 78.5H304C292.954 78.5 284 69.5457 284 58.5V52H324.5Z" stroke="white" stroke-width="6"/>
<path d="M271 32V81M271 21V27" stroke="white" stroke-width="6"/>
<path d="M257.5 17V81" stroke="white" stroke-width="6"/>
<path d="M202 52.5H245.5V40.5C245.5 36.634 242.366 33.5 238.5 33.5H209C205.134 33.5 202 36.634 202 40.5V71.5C202 75.366 205.134 78.5 209 78.5H244" stroke="white" stroke-width="6"/>
<path d="M181.5 17.5V71C181.5 74.866 184.634 78 188.5 78H190M173 27.5H192.5" stroke="white" stroke-width="6"/>
<path d="M127 48.5C127 39.1112 134.611 31.5 144 31.5H163C165.209 31.5 167 33.2909 167 35.5V60.5C167 69.8888 159.389 77.5 150 77.5H131C128.791 77.5 127 75.7091 127 73.5V48.5Z" stroke="white" stroke-width="6"/>
</svg>
