<svg width="328" height="98" viewBox="0 0 328 98" fill="none" xmlns="http://www.w3.org/2000/svg">
<path d="M284 46V46C284 42.134 287.134 39 291 39H304.5C315.546 39 324.5 47.9543 324.5 59V59M324.5 59V78.5C324.5 82.366 321.366 85.5 317.5 85.5H304C292.954 85.5 284 76.5457 284 65.5V59H324.5Z" stroke="#333333" stroke-width="6"/>
<path d="M271 39V88M271 28V34" stroke="#333333" stroke-width="6"/>
<path d="M257.5 24V88" stroke="#333333" stroke-width="6"/>
<path d="M202 59.5H245.5V47.5C245.5 43.634 242.366 40.5 238.5 40.5H209C205.134 40.5 202 43.634 202 47.5V78.5C202 82.366 205.134 85.5 209 85.5H244" stroke="#333333" stroke-width="6"/>
<path d="M181.5 24.5V78C181.5 81.866 184.634 85 188.5 85H190M173 34.5H192.5" stroke="#333333" stroke-width="6"/>
<path d="M144 38.5H163C165.209 38.5 167 40.2909 167 42.5V67.5C167 76.8888 159.389 84.5 150 84.5H131C128.791 84.5 127 82.7091 127 80.5V55.5C127 46.1112 134.611 38.5 144 38.5Z" stroke="#333333" stroke-width="6"/>
<path d="M123.5 97H62V86.5V13V1H75.5V7H67V13H86.5C94 13.5 105.4 19.7 109 36.5C112.6 53.3 115.667 76.8333 116 86.5H123.5V97Z" fill="#009FE3"/>
<path d="M62 86.5V97H123.5V86.5H116M62 86.5V13M62 86.5H116M62 13V1H75.5V7H67V13M62 13H67M116 86.5C115.667 76.8333 112.6 53.3 109 36.5C105.4 19.7 94 13.5 86.5 13H67" stroke="#009FE3"/>
<path d="M1 97H62.5L61.5 86.5V13L62.5 1H49V7H57.5V13H38C30.5 13.5 19.1 19.7 15.5 36.5C11.9 53.3 8.83333 76.8333 8.5 86.5H1V97Z" fill="#2DAAE1"/>
<path d="M61.5 86.5L62.5 97H1V86.5H8.5M61.5 86.5V13M61.5 86.5H8.5M61.5 13L62.5 1H49V7H57.5V13M61.5 13H57.5M8.5 86.5C8.83333 76.8333 11.9 53.3 15.5 36.5C19.1 19.7 30.5 13.5 38 13H57.5" stroke="#2DAAE1"/>
<rect width="62" height="12" transform="matrix(-1 0 0 1 124 86)" fill="#078ED0"/>
<rect width="62" height="12" transform="matrix(-1 0 0 1 62 86)" fill="#009FE3"/>
<path d="M62 1V12H56.5V10.75V7H48V1H62Z" fill="#009FE3" stroke="#009FE3"/>
<path d="M62.5 1V12H67.5V10.75V7H76V1H62.5Z" fill="#078ED0" stroke="#078ED0"/>
<path d="M89 21H73.7115V42.5267H51.7981V21H36V81H51.7981V58.5573H73.7115V80.542H89V21Z" fill="white" stroke="white"/>
</svg>
