<svg width="282" height="221" viewBox="0 0 282 221" fill="none" xmlns="http://www.w3.org/2000/svg">
<path d="M280.103 218.732H140.619V194.918V28.2165V1H171.237V14.6082H151.959V28.2165H196.186C213.196 29.3505 239.052 43.4124 247.217 81.5155C255.382 119.619 262.337 172.993 263.093 194.918H280.103V218.732Z" fill="#009FE3"/>
<path d="M140.619 194.918V218.732H280.103V194.918H263.093M140.619 194.918V28.2165M140.619 194.918H263.093M140.619 28.2165V1H171.237V14.6082H151.959V28.2165M140.619 28.2165H151.959M263.093 194.918C262.337 172.993 255.382 119.619 247.217 81.5155C239.052 43.4124 213.196 29.3505 196.186 28.2165H151.959" stroke="#009FE3"/>
<path d="M3.26839 218.732H142.753L140.485 194.918V28.2165L142.753 1H112.134V14.6082H131.413V28.2165H87.1859C70.1756 29.3505 44.3199 43.4124 36.155 81.5155C27.99 119.619 21.0347 172.993 20.2787 194.918H3.26839V218.732Z" fill="#2DAAE1"/>
<path d="M140.485 194.918L142.753 218.732H3.26839V194.918H20.2787M140.485 194.918V28.2165M140.485 194.918H20.2787M140.485 28.2165L142.753 1H112.134V14.6082H131.413V28.2165M140.485 28.2165H131.413M20.2787 194.918C21.0347 172.993 27.99 119.619 36.155 81.5155C44.3199 43.4124 70.1756 29.3505 87.1859 28.2165H131.413" stroke="#2DAAE1"/>
<rect width="140.619" height="27.2165" transform="matrix(-1 0 0 1 281.237 193.784)" fill="#078ED0"/>
<rect width="140.619" height="27.2165" transform="matrix(-1 0 0 1 140.619 193.784)" fill="#009FE3"/>
<path d="M140.618 1V27.5H128.144V23.1134V14.6082H108.866V1H140.618Z" fill="#009FE3" stroke="#009FE3"/>
<path d="M141.5 1V27.5H153.093V23.1134V14.6082H172.371V1H141.5Z" fill="#078ED0" stroke="#078ED0"/>
<path d="M201.856 46.3613H167.181V95.1848H117.48V46.3613H81.6494V182.444H117.48V131.543H167.181V181.405H201.856V46.3613Z" fill="white" stroke="white"/>
</svg>
